# xmcd CD database file
#
# Track frame offsets:
#	150
#	16051
#	32777
#	48620
#	64783
#	77562
#	96176
#	114618
#	129304
#	144879
#	157275
#	170275
#	183962
#	197738
#
# Disc length: 2826 seconds
#
# Revision: 2
# Processed by: cddbd v1.5.2PL0 Copyright (c) Steve Scherf et al.
# Submitted via: CDex 1.79
#
DISCID=b60b080e
DTITLE=Vince Hatfield - Vince
DYEAR=2004
DGENRE=Country
TTITLE0=Heartbeat In The Darkness
TTITLE1=Blue Movie
TTITLE2=You've Been Keepin' Me Up Nights
TTITLE3=Houston (I'm Coming To See You)
TTITLE4=You've Got To Stop and Smell The Roses
TTITLE5=Middle Of A Texas Fiddle
TTITLE6=Except In Amy's Eyes
TTITLE7=My Heart Keeps Walking Right Back To You
TTITLE8=The Ones Left Behind
TTITLE9=I'm Beginning To Forget You (Like You Forgot Me)
TTITLE10=Small Town Love
TTITLE11=Friday Night Lights (Friday Night Football)
TTITLE12=Homeward Bound
TTITLE13=The Hatfields and The McCoys
EXTD=YEAR: 2004
EXTT0=
EXTT1=
EXTT2=
EXTT3=
EXTT4=
EXTT5=
EXTT6=
EXTT7=
EXTT8=
EXTT9=
EXTT10=
EXTT11=
EXTT12=
EXTT13=
PLAYORDER=
